<svg width="96" height="96" viewBox="0 0 96 96" fill="none" xmlns="http://www.w3.org/2000/svg">
<path d="M25.4221 56.855L22.8096 59.4749C22.5867 59.6985 22.2841 59.8243 21.9684 59.8247C21.6528 59.8252 21.3499 59.7002 21.1263 59.4773L1.71977 40.1255C1.27355 39.6806 1.02237 39.0766 1.02148 38.4464C1.02059 37.8163 1.27006 37.2116 1.71501 36.7654L4.34016 34.1328L25.4323 55.1654C25.6559 55.3883 25.7817 55.6909 25.7821 56.0066C25.7826 56.3222 25.6576 56.6251 25.4347 56.8487L25.4221 56.855Z" fill="#50E6FF"/>
<path d="M22.4043 17.6251L25.0337 20.2471C25.2573 20.47 25.3831 20.7725 25.3835 21.0882C25.384 21.4039 25.259 21.7068 25.0361 21.9303L4.31512 42.71L1.68254 40.0849C1.23633 39.6399 0.985144 39.0359 0.984254 38.4058C0.983362 37.7756 1.23284 37.1709 1.67779 36.7247L20.7274 17.6212C20.9509 17.4004 21.2525 17.2769 21.5667 17.2777C21.8808 17.2784 22.1819 17.4033 22.4043 17.6251Z" fill="#1490DF"/>
<path d="M38.4327 42.5677H22.4338C22.2092 42.5763 21.9903 42.4967 21.8237 42.3459C21.657 42.1951 21.556 41.9851 21.5422 41.7609C21.5424 41.6447 21.5699 41.5301 21.6225 41.4265L40.8042 3.47315C40.8859 3.32597 41.0064 3.20405 41.1526 3.12072C41.2988 3.03739 41.4651 2.99584 41.6334 3.00063H60.5566C60.7811 2.99205 61.0001 3.07167 61.1667 3.22245C61.3333 3.37322 61.4343 3.5832 61.4481 3.80748C61.4465 3.96919 61.3917 4.12586 61.2921 4.25326L38.767 33.9464H60.7349C60.9594 33.9378 61.1784 34.0175 61.345 34.1682C61.5116 34.319 61.6126 34.529 61.6264 34.7533C61.623 34.9578 61.5398 35.153 61.3946 35.2971L24.89 73.2728C24.5468 73.4779 22.1084 75.5017 23.3031 72.4303L38.4327 42.5677Z" fill="url(#paint0_linear_7493_196591)"/>
<path d="M77.3524 34.1517L79.9744 36.7811C80.4193 37.2273 80.6688 37.832 80.6679 38.4622C80.667 39.0923 80.4158 39.6963 79.9696 40.1412L77.2487 42.8545C74.6273 42.414 73.1979 42.1738 69.8848 41.6171L77.3618 34.1611L77.3524 34.1517Z" fill="#1490DF"/>
<path d="M79.9928 40.075L77.3634 42.697L56.6423 21.9173C56.4194 21.6938 56.2945 21.3909 56.2949 21.0752C56.2954 20.7595 56.4212 20.457 56.6447 20.2341L59.2741 17.6121C59.4977 17.3892 59.8006 17.2642 60.1162 17.2646C60.4319 17.2651 60.7345 17.3909 60.9574 17.6144L80.007 36.718C80.4519 37.1642 80.7014 37.7689 80.7005 38.399C80.6996 39.0292 80.4484 39.6332 80.0022 40.0781L79.9928 40.075Z" fill="#1490DF"/>
<path d="M74.1727 58.4098C62.772 58.4098 53.7402 55.4485 53.7402 51.8457V86.8375C53.7402 90.4404 62.8213 93.3522 74.074 93.4016H74.3701C85.7708 93.4016 95 90.4404 95 86.8375V51.8457C94.8026 55.4485 85.5734 58.4098 74.1727 58.4098Z" fill="url(#paint1_linear_7493_196591)"/>
<path d="M95 51.8463C95 55.4491 85.5734 58.4103 74.1727 58.4103C62.772 58.4103 53.7402 55.4491 53.7402 51.8463C53.7402 48.2435 62.9694 45.2822 74.3701 45.2822C85.7708 45.2822 95 48.1941 95 51.8463Z" fill="#E8E8E8"/>
<path d="M90.0153 51.4514C90.0153 53.7711 82.9084 55.6465 74.1727 55.6465C65.4371 55.6465 58.3795 53.623 58.3795 51.4514C58.3795 49.2799 65.4371 47.2563 74.1727 47.2563C82.9084 47.2563 90.0153 49.1318 90.0153 51.4514Z" fill="#50E6FF"/>
<path d="M74.1728 52.2908C69.9388 52.1881 65.7132 52.7204 61.637 53.8701C65.7093 55.0431 69.9359 55.5922 74.1728 55.4988C78.4097 55.5922 82.6363 55.0431 86.7087 53.8701C82.6324 52.7204 78.4069 52.1881 74.1728 52.2908Z" fill="#32BEDD"/>
<path fill-rule="evenodd" clip-rule="evenodd" d="M77.3636 42.6976L73.095 38.417L68.3586 43.1399C70.2606 42.9548 72.2792 42.8551 74.3709 42.8551C75.3126 42.8551 76.2395 42.875 77.1476 42.9135L77.3636 42.6976Z" fill="#50E6FF"/>
<defs>
<linearGradient id="paint0_linear_7493_196591" x1="41.402" y1="73.5805" x2="41.402" y2="2.44016" gradientUnits="userSpaceOnUse">
<stop stop-color="#FEA11B"/>
<stop offset="0.284" stop-color="#FEA51A"/>
<stop offset="0.547" stop-color="#FEB018"/>
<stop offset="0.8" stop-color="#FFC314"/>
<stop offset="1" stop-color="#FFD70F"/>
</linearGradient>
<linearGradient id="paint1_linear_7493_196591" x1="53.5428" y1="72.6236" x2="94.8026" y2="72.6236" gradientUnits="userSpaceOnUse">
<stop stop-color="#005BA1"/>
<stop offset="0.07" stop-color="#0060A9"/>
<stop offset="0.36" stop-color="#0071C8"/>
<stop offset="0.52" stop-color="#0078D4"/>
<stop offset="0.64" stop-color="#0074CD"/>
<stop offset="0.82" stop-color="#006ABB"/>
<stop offset="1" stop-color="#005BA1"/>
</linearGradient>
</defs>
</svg>
