<svg xmlns="http://www.w3.org/2000/svg" viewBox="0 0 16 16"><style>.icon-canvas-transparent{opacity:0;fill:#2d2d30}.icon-vs-out{fill:#2d2d30}.icon-folder{fill:#c09553}.icon-vs-fg{fill:#2b282e}.icon-vs-bg{fill:#c5c5c5}</style><path class="icon-canvas-transparent" d="M0 0h16v16H0V0z" id="canvas"/><path class="icon-vs-out" d="M14.996 9.418V10H16v1.352l-1.004.96v.188c0 .827-.673 1.5-1.5 1.5h-.266l-2.092 2H9.441l.961-2H1.5C.673 14 0 13.327 0 12.5v-10C0 1.673.673 1 1.5 1h8.11l1 2h2.886c.827 0 1.5.673 1.5 1.5V7H16v1.414l-1.004 1.004z" id="outline" style="display: none;"/><path class="icon-vs-fg" d="M2 3h6.374l.5 1H2V3z" id="iconBg" style="display: none;"/><g id="iconFg"><path class="icon-vs-bg" d="M12 8l-2 4h2.5L11 15l4-4h-3l3-3z"/><path class="icon-folder" d="M13.996 7V4.5a.5.5 0 0 0-.5-.5H9.992l-1-2H1.5a.5.5 0 0 0-.5.5v10a.5.5 0 0 0 .5.5h6.882l3-6h2.614zM2 4V3h6.374l.5 1H2z"/></g></svg>