<svg xmlns="http://www.w3.org/2000/svg" viewBox="0 0 16 16"><defs><style>.icon-canvas-transparent,.icon-vs-out{fill:#252526;}.icon-canvas-transparent{opacity:0;}.icon-vs-bg{fill:#c5c5c5;}</style></defs><title>Visible_16x</title><g id="canvas"><path class="icon-canvas-transparent" d="M16,0V16H0V0Z"/></g><g id="outline" style="display: none;"><path class="icon-vs-out" d="M16,9v1H11.444a3.965,3.965,0,0,1-6.888,0H0V9A8,8,0,0,1,16,9Z" style="display: none;"/></g><g id="iconBg"><path class="icon-vs-bg" d="M15,9H14A6,6,0,0,0,2,9H1A7,7,0,0,1,15,9ZM11,8A3,3,0,1,1,8,5,3,3,0,0,1,11,8ZM10,8a2,2,0,1,0-2,2A2,2,0,0,0,10,8Z"/></g></svg>
