<svg id="ad977de9-34e0-4bef-8a54-da87adb593cc" xmlns="http://www.w3.org/2000/svg" width="18" height="18" viewBox="0 0 18 18">
  <defs>
    <linearGradient id="fe5ed3b3-9c39-4295-8c7e-8b1e63bf12a9" x1="-64.1" y1="-140.7" x2="-64.1" y2="-156.2" gradientTransform="translate(83.11 161.61) scale(1.16 1.03)" gradientUnits="userSpaceOnUse">
      <stop offset="0" stop-color="#fea11b"/>
      <stop offset="0.28" stop-color="#fea51a"/>
      <stop offset="0.55" stop-color="#feb018"/>
      <stop offset="0.8" stop-color="#ffc314"/>
      <stop offset="1" stop-color="#ffd70f"/>
    </linearGradient>
  </defs>
  <title>Icon-29Artboard 1</title>
  <g>
    <g>
      <path d="M5.5,13.1l-.6.6a.3.3,0,0,1-.4,0L.2,9.4a.61.61,0,0,1,0-.8L.7,8h0l4.8,4.8c0,.1.1.2,0,.3Z" fill="#50e6ff"/>
      <path d="M4.8,4.3l.6.6a.3.3,0,0,1,0,.4L.8,9.9h0L.2,9.3a.61.61,0,0,1,0-.8h0L4.5,4.2A.37.37,0,0,1,4.8,4.3Z" fill="#1490df"/>
    </g>
    <g>
      <path d="M17.3,8l.6.6a.61.61,0,0,1,0,.8l-4.4,4.4a.3.3,0,0,1-.4,0h0l-.6-.6a.3.3,0,0,1,0-.4h0Z" fill="#50e6ff"/>
      <path d="M17.8,9.3l-.6.6h0L12.5,5.2a.3.3,0,0,1,0-.4h0l.6-.6a.3.3,0,0,1,.4,0h0l4.3,4.3A.61.61,0,0,1,17.8,9.3Z" fill="#1490df"/>
    </g>
    <path d="M8.3,9.9H4.7a.22.22,0,0,1-.2-.2V9.6L8.8,1.1c.1,0,.1-.1.2-.1h4.2a.22.22,0,0,1,.2.2v.1L8.4,8h4.9a.22.22,0,0,1,.2.2c0,.1,0,.1-.1.1h0L5.2,16.8c-.1,0-.6.5-.4-.2h0Z" fill="url(#fe5ed3b3-9c39-4295-8c7e-8b1e63bf12a9)"/>
  </g>
</svg>
