<?xml version="1.0" encoding="utf-8"?>
<!-- Generator: Adobe Illustrator 20.1.0, SVG Export Plug-In . SVG Version: 6.00 Build 0)  -->
<svg version="1.1" id="Layer_1" xmlns="http://www.w3.org/2000/svg" xmlns:xlink="http://www.w3.org/1999/xlink" x="0px" y="0px"
	 viewBox="0 0 40 40" style="enable-background:new 0 0 40 40;" xml:space="preserve">
<style type="text/css">
	.st0{display:none;fill:#7FBA00;}
	.st1{fill:#7FBA00;}
</style>
<rect x="-21" y="-16" class="st0" width="89" height="70.7"/>
<path class="st1" d="M30.8,17.8c-0.4-2.4-1.6-4.7-3.4-6.6c-2.4-2.4-5.5-3.7-8.9-3.7c-3.3,0-6.5,1.3-8.9,3.7c-0.8,0.8-0.8,2.1,0,3
	c0.8,0.8,2.1,0.8,3,0c1.6-1.6,3.7-2.4,5.9-2.4s4.3,0.9,5.9,2.4c3.3,3.3,3.3,8.6,0,11.8c-1.6,1.6-3.7,2.4-5.9,2.4s-4.3-0.9-5.9-2.4
	c-0.8-0.8-2.1-0.8-3,0c-0.8,0.8-0.8,2.1,0,3c2.4,2.4,5.5,3.7,8.9,3.7c3.3,0,6.5-1.3,8.9-3.7c2-2,3.1-4.4,3.5-7h3.9
	c-0.2-1.3-0.5-2.7-0.8-4.2H30.8z"/>
<circle class="st1" cx="18.6" cy="19.9" r="5"/>
<rect x="0.4" y="17.7" class="st1" width="17.9" height="4.4"/>
<rect x="30" y="17.7" class="st1" width="10" height="4.4"/>
</svg>
