<svg xmlns="http://www.w3.org/2000/svg" viewBox="0 0 16 16">
  <g id="canvas">
    <path d="M16,16H0V0H16Z" fill="none" opacity="0" />
  </g>
  <g id="level-1">
    <path d="M7.577,9.949H4.767a.152.152,0,0,1-.157-.142.132.132,0,0,1,.015-.058L7.993,3.083A.162.162,0,0,1,8.139,3h3.323a.152.152,0,0,1,.157.142.129.129,0,0,1-.027.078L7.636,8.435h3.858a.151.151,0,0,1,.156.142.135.135,0,0,1-.04.1L5.2,15.342c-.06.036-.488.391-.278-.148h0Z" opacity="0.1" />
    <path d="M5.294,10.763a.21.21,0,0,1,0,.3h0l-.459.46a.208.208,0,0,1-.295,0l-3.409-3.4a.418.418,0,0,1,0-.59l.461-.463Zm9.578-3.229-.458-.46-3.7,3.694a.209.209,0,0,0,0,.295l.459.46a.209.209,0,0,0,.295,0l3.409-3.4A.417.417,0,0,0,14.872,7.534Zm-.46-.461h0Z" fill="#50e6ff" />
    <path d="M5.224,4.631a.209.209,0,0,1,0,.295L1.585,8.576l-.462-.461a.416.416,0,0,1,0-.59L4.467,4.17a.209.209,0,0,1,.295,0Zm9.654,2.892L11.533,4.168a.209.209,0,0,0-.3,0l-.462.46a.209.209,0,0,0,0,.3l3.639,3.649.462-.46h0A.416.416,0,0,0,14.878,7.523Z" fill="#1490df" />
    <path d="M7.577,8.551H4.767a.152.152,0,0,1-.157-.142.136.136,0,0,1,.015-.059L7.993,1.685A.162.162,0,0,1,8.139,1.6h3.323a.152.152,0,0,1,.157.141.132.132,0,0,1-.027.079L7.636,7.037h3.858a.149.149,0,0,1,.156.141.137.137,0,0,1-.04.1L5.2,13.943c-.06.036-.488.392-.278-.148h0Z" fill="#fea11b" />
  </g>
</svg>