<?xml version="1.0" encoding="utf-8"?>
<!-- Generator: Adobe Illustrator 21.0.0, SVG Export Plug-In . SVG Version: 6.00 Build 0)  -->
<svg version="1.1" id="Layer_1" xmlns="http://www.w3.org/2000/svg" xmlns:xlink="http://www.w3.org/1999/xlink" x="0px" y="0px"
	 viewBox="0 0 50 50" enable-background="new 0 0 50 50" xml:space="preserve">
<g>
	<path fill="#804998" d="M13.727,46.042c-1.443,0-3.952-0.596-4.242-2.521c-0.148-0.98,0.323-1.777,0.878-2.04
		c1.258-0.596,2.299,0.162,2.799,1.003c0.158,0.273,0.609,1.052,1.346,1.052c0.371,0,1.292,0.081,2.381-0.723
		c0.712-0.728,1.45-1.867,2.135-3.338c0.699-1.504,1.326-3.144,1.864-4.874c0,0,5.951-20.245,7.937-24.495
		c1.51-3.232,3.95-6.129,7.733-6.515c1.569-0.16,2.744,0.199,3.445,0.789c0.719,0.605,1.083,1.261,1.083,1.952
		c0,2.426-2.668,2.294-3.478,1.553c-0.693-0.635-0.349-2.121-1.515-2.121c-0.742,0-1.496,0.75-2.028,1.365
		c-0.375,0.453-0.792,1.148-1.233,2.061c-0.449,0.928-0.945,2.275-1.475,4.005c-0.43,1.407-4.668,16.133-6.598,21.571
		c-0.789,2.222-1.557,3.788-2.324,5.127c-0.778,1.358-1.735,2.721-2.912,3.781C17.267,45.707,15.16,46.042,13.727,46.042z"/>
</g>
<polygon fill="#804998" points="35.5,20 19.5,20 20.5,17 36.5,17 "/>
</svg>
