<svg xmlns="http://www.w3.org/2000/svg" viewBox="0 0 50 50" focusable="false" xmlns:xlink="http://www.w3.org/1999/xlink" xmlns:svg="http://www.w3.org/2000/svg">
    <g>
        <path fill="#a0a1a2" d="M 42.744 50 H 7.256 c -3.27 0 -5.93 -2.66 -5.93 -5.93 v -9.863 a 1.562 1.562 0 1 1 3.126 0 v 9.863 a 2.81 2.81 0 0 0 2.805 2.805 h 35.489 a 2.81 2.81 0 0 0 2.805 -2.805 v -9.863 a 1.562 1.562 0 1 1 3.126 0 v 9.863 A 5.941 5.941 0 0 1 42.744 50 Z" />
        <path fill="#59b4d9" d="M 7.006 16.691 h 9.87 v 27.614 h -9.87 Z m 13.059 0 h 9.87 v 27.614 h -9.87 Z" />
        <path fill="#b8d432" d="M 33.125 16.691 h 9.869 v 27.614 h -9.869 Z" />
    </g>
</svg>